# xmcd
#
# Track frame offsets:
# 150
# 42967
# 71508
# 99783
# 132126
# 170733
# 197887
# 214531
# 242487
# 259152
#
# Disc length: 3865 seconds
#
#
# Revision: 0
# Processed by: cddbd v1.5.1PL2 Copyright (c) Steve Scherf et al.
# Submitted via: FreeRIP 2.942 
#
DISCID=870f170a
DTITLE=Ivan Diniz - Paixão de Bravos - Vol.02
DYEAR=2005
DGENRE=Country
TTITLE0=Mata Assombrada
TTITLE1=Mãe
TTITLE2=O Caipira
TTITLE3=Moça Bonita
TTITLE4=Nossa Senhora
TTITLE5=Lição de Vida
TTITLE6=Diário de Um Feto
TTITLE7=Amigo
TTITLE8=Estatuto do Homem
TTITLE9=Preconceito Racial
EXTD=
EXTT0=
EXTT1=
EXTT2=
EXTT3=
EXTT4=
EXTT5=
EXTT6=
EXTT7=
EXTT8=
EXTT9=
PLAYORDER=
